<mxfile host="65bd71144e">
    <diagram id="XfOS7jU-tQ-0Dx_YnIQr" name="Page-1">
        <mxGraphModel dx="2154" dy="1858" grid="1" gridSize="10" guides="1" tooltips="1" connect="1" arrows="1" fold="1" page="1" pageScale="1" pageWidth="850" pageHeight="1100" math="0" shadow="0">
            <root>
                <mxCell id="0"/>
                <mxCell id="1" parent="0"/>
                <mxCell id="3" value="Users" style="text;html=1;align=center;verticalAlign=middle;whiteSpace=wrap;rounded=0;" vertex="1" parent="1">
                    <mxGeometry x="70" y="40" width="60" height="30" as="geometry"/>
                </mxCell>
                <mxCell id="10" style="edgeStyle=none;html=1;exitX=0;exitY=0.5;exitDx=0;exitDy=0;entryX=0;entryY=0.5;entryDx=0;entryDy=0;" edge="1" parent="1" source="6" target="8">
                    <mxGeometry relative="1" as="geometry">
                        <Array as="points">
                            <mxPoint x="10" y="120"/>
                            <mxPoint x="-90" y="120"/>
                            <mxPoint x="-90" y="170"/>
                            <mxPoint x="-90" y="215"/>
                            <mxPoint x="-90" y="265"/>
                        </Array>
                    </mxGeometry>
                </mxCell>
                <mxCell id="11" style="edgeStyle=none;html=1;entryX=0;entryY=0.5;entryDx=0;entryDy=0;" edge="1" parent="1" source="6" target="7">
                    <mxGeometry relative="1" as="geometry">
                        <Array as="points">
                            <mxPoint x="190" y="120"/>
                            <mxPoint x="190" y="230"/>
                        </Array>
                    </mxGeometry>
                </mxCell>
                <mxCell id="17" style="edgeStyle=none;html=1;exitX=0;exitY=0.5;exitDx=0;exitDy=0;entryX=0;entryY=0.5;entryDx=0;entryDy=0;" edge="1" parent="1" source="6" target="16">
                    <mxGeometry relative="1" as="geometry">
                        <Array as="points">
                            <mxPoint x="-90" y="120"/>
                            <mxPoint x="-90" y="210"/>
                            <mxPoint x="-90" y="255"/>
                            <mxPoint x="-90" y="395"/>
                        </Array>
                    </mxGeometry>
                </mxCell>
                <mxCell id="24" style="edgeStyle=none;html=1;entryX=0;entryY=0.5;entryDx=0;entryDy=0;" edge="1" parent="1" source="6" target="23">
                    <mxGeometry relative="1" as="geometry">
                        <Array as="points">
                            <mxPoint x="190" y="120"/>
                            <mxPoint x="190" y="495"/>
                        </Array>
                    </mxGeometry>
                </mxCell>
                <mxCell id="6" value="" style="rhombus;whiteSpace=wrap;html=1;" vertex="1" parent="1">
                    <mxGeometry x="60" y="80" width="80" height="80" as="geometry"/>
                </mxCell>
                <mxCell id="7" value="" style="rounded=0;whiteSpace=wrap;html=1;" vertex="1" parent="1">
                    <mxGeometry x="240" y="120" width="120" height="220" as="geometry"/>
                </mxCell>
                <mxCell id="8" value="&lt;div style=&quot;color: rgb(204, 204, 204); background-color: rgb(31, 31, 31); font-family: Consolas, &amp;quot;Courier New&amp;quot;, monospace; font-size: 14px; line-height: 19px; white-space: pre;&quot;&gt;&lt;div&gt;&lt;span style=&quot;color: #4fc1ff;&quot;&gt;firstName&lt;/span&gt;&lt;span style=&quot;color: #cccccc;&quot;&gt;,&lt;/span&gt;&lt;/div&gt;&lt;div&gt;&lt;span style=&quot;color: rgb(79, 193, 255);&quot;&gt;lastName&lt;/span&gt;&lt;span style=&quot;color: rgb(204, 204, 204);&quot;&gt;,&lt;/span&gt;&lt;/div&gt;&lt;div&gt;&lt;span style=&quot;color: rgb(79, 193, 255);&quot;&gt;gender&lt;/span&gt;&lt;span style=&quot;color: rgb(204, 204, 204);&quot;&gt;,&lt;/span&gt;&lt;/div&gt;&lt;div&gt;&lt;span style=&quot;color: #cccccc;&quot;&gt;&amp;nbsp;&lt;/span&gt;&lt;span style=&quot;color: #4fc1ff;&quot;&gt;location&lt;/span&gt;&lt;span style=&quot;color: #cccccc;&quot;&gt;,&lt;/span&gt;&lt;/div&gt;&lt;div&gt;&lt;span style=&quot;color: #cccccc;&quot;&gt;&amp;nbsp;&lt;/span&gt;&lt;span style=&quot;color: #4fc1ff;&quot;&gt;National_No&lt;/span&gt;&lt;span style=&quot;color: #cccccc;&quot;&gt;,&lt;/span&gt;&lt;/div&gt;&lt;div&gt;&lt;span style=&quot;color: #cccccc;&quot;&gt;&amp;nbsp;&lt;/span&gt;&lt;span style=&quot;color: #4fc1ff;&quot;&gt;phone_No&lt;/span&gt;&lt;span style=&quot;color: #cccccc;&quot;&gt;,&lt;/span&gt;&lt;/div&gt;&lt;div&gt;&lt;span style=&quot;color: rgb(79, 193, 255);&quot;&gt;role&lt;/span&gt;&lt;span style=&quot;color: rgb(204, 204, 204);&quot;&gt;,&lt;/span&gt;&lt;/div&gt;&lt;/div&gt;" style="rounded=0;whiteSpace=wrap;html=1;" vertex="1" parent="1">
                    <mxGeometry x="-260" y="200" width="100" height="130" as="geometry"/>
                </mxCell>
                <mxCell id="12" value="/auth" style="text;html=1;align=center;verticalAlign=middle;whiteSpace=wrap;rounded=0;" vertex="1" parent="1">
                    <mxGeometry y="80" width="60" height="30" as="geometry"/>
                </mxCell>
                <mxCell id="13" value="/users" style="text;html=1;align=center;verticalAlign=middle;whiteSpace=wrap;rounded=0;" vertex="1" parent="1">
                    <mxGeometry x="130" y="80" width="60" height="30" as="geometry"/>
                </mxCell>
                <mxCell id="15" value="headers:&lt;div&gt;Authorization: AcBearer &amp;lt;access token&amp;gt;&lt;/div&gt;&lt;div&gt;refreshToken: ReBearer &amp;lt;refreshToken&amp;gt;&lt;/div&gt;" style="rounded=1;whiteSpace=wrap;html=1;" vertex="1" parent="1">
                    <mxGeometry x="-145" y="-50" width="700" height="60" as="geometry"/>
                </mxCell>
                <mxCell id="16" value="&lt;div style=&quot;color: rgb(204, 204, 204); background-color: rgb(31, 31, 31); font-family: Consolas, &amp;quot;Courier New&amp;quot;, monospace; font-size: 14px; line-height: 19px; white-space: pre;&quot;&gt;&lt;span style=&quot;color: #4fc1ff;&quot;&gt;phone_No&lt;/span&gt;&lt;span style=&quot;color: #cccccc;&quot;&gt;,&lt;/span&gt;&lt;/div&gt;&lt;div style=&quot;color: rgb(204, 204, 204); background-color: rgb(31, 31, 31); font-family: Consolas, &amp;quot;Courier New&amp;quot;, monospace; font-size: 14px; line-height: 19px; white-space: pre;&quot;&gt;&lt;span style=&quot;color: rgb(79, 193, 255);&quot;&gt;role&lt;/span&gt;&lt;/div&gt;" style="rounded=0;whiteSpace=wrap;html=1;" vertex="1" parent="1">
                    <mxGeometry x="-260" y="350" width="100" height="90" as="geometry"/>
                </mxCell>
                <mxCell id="18" value="&lt;span style=&quot;color: rgb(0, 0, 0);&quot;&gt;/register&lt;/span&gt;" style="text;html=1;align=center;verticalAlign=middle;whiteSpace=wrap;rounded=0;" vertex="1" parent="1">
                    <mxGeometry x="-160" y="230" width="60" height="30" as="geometry"/>
                </mxCell>
                <mxCell id="19" value="&lt;span style=&quot;color: rgb(0, 0, 0);&quot;&gt;/login&lt;/span&gt;" style="text;html=1;align=center;verticalAlign=middle;whiteSpace=wrap;rounded=0;" vertex="1" parent="1">
                    <mxGeometry x="-160" y="360" width="60" height="30" as="geometry"/>
                </mxCell>
                <mxCell id="21" value="post" style="ellipse;whiteSpace=wrap;html=1;" vertex="1" parent="1">
                    <mxGeometry x="-140" y="70" width="70" height="50" as="geometry"/>
                </mxCell>
                <mxCell id="22" value="/" style="text;html=1;align=center;verticalAlign=middle;whiteSpace=wrap;rounded=0;" vertex="1" parent="1">
                    <mxGeometry x="180" y="200" width="60" height="30" as="geometry"/>
                </mxCell>
                <mxCell id="23" value="" style="rounded=0;whiteSpace=wrap;html=1;" vertex="1" parent="1">
                    <mxGeometry x="240" y="360" width="120" height="270" as="geometry"/>
                </mxCell>
                <mxCell id="25" value="/&amp;lt;id&amp;gt;" style="text;html=1;align=center;verticalAlign=middle;whiteSpace=wrap;rounded=0;" vertex="1" parent="1">
                    <mxGeometry x="180" y="460" width="60" height="30" as="geometry"/>
                </mxCell>
                <mxCell id="29" value="" style="edgeStyle=none;html=1;" edge="1" parent="1" source="26" target="28">
                    <mxGeometry relative="1" as="geometry"/>
                </mxCell>
                <mxCell id="26" value="get" style="text;html=1;align=center;verticalAlign=middle;whiteSpace=wrap;rounded=0;" vertex="1" parent="1">
                    <mxGeometry x="270" y="130" width="60" height="30" as="geometry"/>
                </mxCell>
                <mxCell id="32" value="" style="edgeStyle=none;html=1;" edge="1" parent="1" source="27" target="31">
                    <mxGeometry relative="1" as="geometry"/>
                </mxCell>
                <mxCell id="27" value="post" style="text;html=1;align=center;verticalAlign=middle;whiteSpace=wrap;rounded=0;" vertex="1" parent="1">
                    <mxGeometry x="270" y="252.5" width="60" height="30" as="geometry"/>
                </mxCell>
                <mxCell id="50" value="" style="edgeStyle=none;html=1;" edge="1" parent="1" source="28" target="49">
                    <mxGeometry relative="1" as="geometry"/>
                </mxCell>
                <mxCell id="28" value="&lt;br&gt;&lt;div style=&quot;background-color: rgb(31, 31, 31); font-family: Consolas, &amp;quot;Courier New&amp;quot;, monospace; font-weight: normal; font-size: 14px; line-height: 19px; white-space: pre; color: rgb(204, 204, 204);&quot;&gt;&lt;div&gt;&lt;span style=&quot;color: rgb(156, 220, 254);&quot;&gt;limit,&lt;/span&gt;&lt;/div&gt;&lt;div&gt;&lt;span style=&quot;color: rgb(156, 220, 254);&quot;&gt;page&lt;/span&gt;&lt;/div&gt;&lt;/div&gt;&lt;div&gt;&lt;br/&gt;&lt;/div&gt;" style="whiteSpace=wrap;html=1;" vertex="1" parent="1">
                    <mxGeometry x="420" y="115" width="120" height="60" as="geometry"/>
                </mxCell>
                <mxCell id="30" value="query" style="text;html=1;align=center;verticalAlign=middle;whiteSpace=wrap;rounded=0;" vertex="1" parent="1">
                    <mxGeometry x="360" y="115" width="60" height="30" as="geometry"/>
                </mxCell>
                <mxCell id="58" value="" style="edgeStyle=none;html=1;" edge="1" parent="1" source="31" target="54">
                    <mxGeometry relative="1" as="geometry"/>
                </mxCell>
                <mxCell id="31" value="&lt;div style=&quot;color: rgb(204, 204, 204); background-color: rgb(31, 31, 31); font-family: Consolas, &amp;quot;Courier New&amp;quot;, monospace; font-weight: normal; font-size: 14px; line-height: 19px; white-space: pre;&quot;&gt;&lt;div&gt;&lt;span style=&quot;color: rgb(79, 193, 255);&quot;&gt;firstName&lt;/span&gt;&lt;span style=&quot;color: rgb(204, 204, 204);&quot;&gt;,&lt;/span&gt;&lt;/div&gt;&lt;div&gt;&lt;span style=&quot;color: rgb(79, 193, 255);&quot;&gt;lastName&lt;/span&gt;&lt;span style=&quot;color: rgb(204, 204, 204);&quot;&gt;,&lt;/span&gt;&lt;/div&gt;&lt;div&gt;&lt;span style=&quot;color: rgb(79, 193, 255);&quot;&gt;gender&lt;/span&gt;&lt;span style=&quot;color: rgb(204, 204, 204);&quot;&gt;,&lt;/span&gt;&lt;/div&gt;&lt;div&gt;&lt;span style=&quot;color: rgb(79, 193, 255);&quot;&gt;location&lt;/span&gt;&lt;span style=&quot;color: rgb(204, 204, 204);&quot;&gt;,&lt;/span&gt;&lt;/div&gt;&lt;div&gt;&lt;span style=&quot;color: rgb(79, 193, 255);&quot;&gt;National_No&lt;/span&gt;&lt;span style=&quot;color: rgb(204, 204, 204);&quot;&gt;,&lt;/span&gt;&lt;/div&gt;&lt;div&gt;&lt;span style=&quot;color: rgb(79, 193, 255);&quot;&gt;phone_No&lt;/span&gt;&lt;span style=&quot;color: rgb(204, 204, 204);&quot;&gt;,&lt;/span&gt;&lt;/div&gt;&lt;div&gt;&lt;span style=&quot;color: rgb(204, 204, 204);&quot;&gt;&amp;nbsp;&lt;/span&gt;&lt;span style=&quot;color: rgb(79, 193, 255);&quot;&gt;role&lt;/span&gt;&lt;span style=&quot;color: rgb(204, 204, 204);&quot;&gt;,&lt;/span&gt;&lt;/div&gt;&lt;/div&gt;&lt;div&gt;&lt;br/&gt;&lt;/div&gt;" style="whiteSpace=wrap;html=1;" vertex="1" parent="1">
                    <mxGeometry x="435" y="205" width="90" height="125" as="geometry"/>
                </mxCell>
                <mxCell id="33" value="body" style="text;html=1;align=center;verticalAlign=middle;whiteSpace=wrap;rounded=0;" vertex="1" parent="1">
                    <mxGeometry x="365" y="240" width="60" height="30" as="geometry"/>
                </mxCell>
                <mxCell id="39" value="" style="edgeStyle=none;html=1;" edge="1" parent="1" source="35" target="38">
                    <mxGeometry relative="1" as="geometry"/>
                </mxCell>
                <mxCell id="35" value="get" style="text;html=1;align=center;verticalAlign=middle;whiteSpace=wrap;rounded=0;" vertex="1" parent="1">
                    <mxGeometry x="270" y="380" width="60" height="30" as="geometry"/>
                </mxCell>
                <mxCell id="45" value="" style="edgeStyle=none;html=1;" edge="1" parent="1" source="36" target="44">
                    <mxGeometry relative="1" as="geometry"/>
                </mxCell>
                <mxCell id="36" value="patch" style="text;html=1;align=center;verticalAlign=middle;whiteSpace=wrap;rounded=0;" vertex="1" parent="1">
                    <mxGeometry x="270" y="480" width="60" height="30" as="geometry"/>
                </mxCell>
                <mxCell id="42" value="" style="edgeStyle=none;html=1;" edge="1" parent="1" source="37" target="41">
                    <mxGeometry relative="1" as="geometry"/>
                </mxCell>
                <mxCell id="37" value="delete" style="text;html=1;align=center;verticalAlign=middle;whiteSpace=wrap;rounded=0;" vertex="1" parent="1">
                    <mxGeometry x="270" y="580" width="60" height="30" as="geometry"/>
                </mxCell>
                <mxCell id="57" value="" style="edgeStyle=none;html=1;" edge="1" parent="1" source="38" target="53">
                    <mxGeometry relative="1" as="geometry"/>
                </mxCell>
                <mxCell id="38" value="" style="whiteSpace=wrap;html=1;" vertex="1" parent="1">
                    <mxGeometry x="435" y="365" width="120" height="60" as="geometry"/>
                </mxCell>
                <mxCell id="40" value="/&amp;lt;id&amp;gt;" style="text;html=1;align=center;verticalAlign=middle;whiteSpace=wrap;rounded=0;" vertex="1" parent="1">
                    <mxGeometry x="365" y="360" width="60" height="30" as="geometry"/>
                </mxCell>
                <mxCell id="55" value="" style="edgeStyle=none;html=1;" edge="1" parent="1" source="41" target="51">
                    <mxGeometry relative="1" as="geometry"/>
                </mxCell>
                <mxCell id="41" value="" style="whiteSpace=wrap;html=1;" vertex="1" parent="1">
                    <mxGeometry x="435" y="565" width="120" height="60" as="geometry"/>
                </mxCell>
                <mxCell id="43" value="/&amp;lt;id&amp;gt;" style="text;html=1;align=center;verticalAlign=middle;whiteSpace=wrap;rounded=0;" vertex="1" parent="1">
                    <mxGeometry x="365" y="560" width="60" height="30" as="geometry"/>
                </mxCell>
                <mxCell id="56" value="" style="edgeStyle=none;html=1;" edge="1" parent="1" source="44" target="52">
                    <mxGeometry relative="1" as="geometry"/>
                </mxCell>
                <mxCell id="44" value="user wanted data to&lt;div&gt;update&lt;/div&gt;" style="whiteSpace=wrap;html=1;" vertex="1" parent="1">
                    <mxGeometry x="435" y="465" width="120" height="60" as="geometry"/>
                </mxCell>
                <mxCell id="46" value="/&amp;lt;id&amp;gt;" style="text;html=1;align=center;verticalAlign=middle;whiteSpace=wrap;rounded=0;" vertex="1" parent="1">
                    <mxGeometry x="365" y="440" width="60" height="30" as="geometry"/>
                </mxCell>
                <mxCell id="47" value="body" style="text;html=1;align=center;verticalAlign=middle;whiteSpace=wrap;rounded=0;" vertex="1" parent="1">
                    <mxGeometry x="365" y="465" width="60" height="30" as="geometry"/>
                </mxCell>
                <mxCell id="48" value="http://&amp;lt;domain&amp;gt;:4000/api" style="rounded=1;whiteSpace=wrap;html=1;" vertex="1" parent="1">
                    <mxGeometry x="-145" y="-120" width="700" height="60" as="geometry"/>
                </mxCell>
                <mxCell id="49" value="require auth" style="ellipse;shape=cloud;whiteSpace=wrap;html=1;" vertex="1" parent="1">
                    <mxGeometry x="600" y="122.5" width="100" height="45" as="geometry"/>
                </mxCell>
                <mxCell id="51" value="require auth" style="ellipse;shape=cloud;whiteSpace=wrap;html=1;" vertex="1" parent="1">
                    <mxGeometry x="620" y="572.5" width="100" height="45" as="geometry"/>
                </mxCell>
                <mxCell id="52" value="require auth" style="ellipse;shape=cloud;whiteSpace=wrap;html=1;" vertex="1" parent="1">
                    <mxGeometry x="620" y="472.5" width="100" height="45" as="geometry"/>
                </mxCell>
                <mxCell id="53" value="require auth" style="ellipse;shape=cloud;whiteSpace=wrap;html=1;" vertex="1" parent="1">
                    <mxGeometry x="620" y="372.5" width="100" height="45" as="geometry"/>
                </mxCell>
                <mxCell id="54" value="require auth" style="ellipse;shape=cloud;whiteSpace=wrap;html=1;" vertex="1" parent="1">
                    <mxGeometry x="620" y="245" width="100" height="45" as="geometry"/>
                </mxCell>
            </root>
        </mxGraphModel>
    </diagram>
</mxfile>